<svg width="26" height="26" viewBox="0 0 26 26" fill="none" xmlns="http://www.w3.org/2000/svg">
<path d="M6.23325 9.93343C5.63325 9.93343 5.12214 9.72232 4.69992 9.3001C4.2777 8.87788 4.06659 8.36676 4.06659 7.76676C4.06659 7.16676 4.2777 6.65565 4.69992 6.23343C5.12214 5.81121 5.63325 5.6001 6.23325 5.6001C6.83325 5.6001 7.34436 5.81121 7.76659 6.23343C8.18881 6.65565 8.39992 7.16676 8.39992 7.76676C8.39992 8.36676 8.18881 8.87788 7.76659 9.3001C7.34436 9.72232 6.83325 9.93343 6.23325 9.93343ZM3.73325 25.6668C3.33325 25.6668 2.98881 25.5501 2.69992 25.3168C2.41103 25.0834 2.26659 24.7557 2.26659 24.3334C1.73325 24.3334 1.2777 24.139 0.899919 23.7501C0.522141 23.3612 0.333252 22.9112 0.333252 22.4001V15.9668C0.333252 15.7001 0.427697 15.4723 0.616585 15.2834C0.805474 15.0945 1.03325 15.0001 1.29992 15.0001H4.06659V14.0668C4.06659 13.3334 4.32214 12.7112 4.83325 12.2001C5.34436 11.689 5.9777 11.4334 6.73325 11.4334C7.11103 11.4334 7.48881 11.5168 7.86658 11.6834C8.24436 11.8501 8.56659 12.0779 8.83325 12.3668L10.3666 14.1334C10.5221 14.289 10.6833 14.4445 10.8499 14.6001C11.0166 14.7557 11.1888 14.889 11.3666 15.0001H20.6666V3.9001C20.6666 3.41121 20.4999 2.99454 20.1666 2.6501C19.8333 2.30565 19.4333 2.13343 18.9666 2.13343C18.7221 2.13343 18.4888 2.16676 18.2666 2.23343C18.0444 2.3001 17.8555 2.42232 17.6999 2.6001L15.9999 4.3001C16.0888 4.67788 16.0999 5.05565 16.0333 5.43343C15.9666 5.81121 15.8333 6.17788 15.6333 6.53343L12.6333 3.66676C12.9666 3.42232 13.3333 3.27232 13.7333 3.21676C14.1333 3.16121 14.5333 3.2001 14.9333 3.33343L16.6333 1.66676C16.9444 1.35565 17.2999 1.1001 17.6999 0.900098C18.0999 0.700098 18.5221 0.600098 18.9666 0.600098C19.8555 0.600098 20.611 0.92232 21.2333 1.56676C21.8555 2.21121 22.1666 2.98899 22.1666 3.9001V15.0001H24.6999C24.9666 15.0001 25.1944 15.0945 25.3833 15.2834C25.5721 15.4723 25.6666 15.7001 25.6666 15.9668V22.4001C25.6666 22.9334 25.4721 23.389 25.0833 23.7668C24.6944 24.1445 24.2444 24.3334 23.7333 24.3334C23.7333 24.7557 23.5888 25.0834 23.2999 25.3168C23.011 25.5501 22.6555 25.6668 22.2333 25.6668H3.73325ZM2.26659 22.8334H23.7333C23.8666 22.8334 23.9721 22.7945 24.0499 22.7168C24.1277 22.639 24.1666 22.5334 24.1666 22.4001V16.5001H1.83325V22.4001C1.83325 22.5334 1.87214 22.639 1.94992 22.7168C2.0277 22.7945 2.13325 22.8334 2.26659 22.8334ZM24.1666 22.8334H1.83325H24.1666Z" fill="white"/>
</svg>
