<svg width="26" height="17" viewBox="0 0 26 17" fill="none" xmlns="http://www.w3.org/2000/svg">
<path d="M1.09992 16.6667C0.877696 16.6667 0.694363 16.5944 0.549919 16.45C0.405474 16.3056 0.333252 16.1222 0.333252 15.9V8.96667C0.333252 8.5 0.444363 8.03333 0.666585 7.56667C0.888808 7.1 1.22214 6.74444 1.66659 6.5V3C1.66659 2.15556 1.95547 1.44444 2.53325 0.866667C3.11103 0.288889 3.82214 0 4.66659 0H10.7999C11.2666 0 11.6888 0.105556 12.0666 0.316667C12.4444 0.527778 12.7555 0.811111 12.9999 1.16667C13.2444 0.811111 13.5499 0.527778 13.9166 0.316667C14.2833 0.105556 14.6999 0 15.1666 0H21.3333C22.1777 0 22.8888 0.288889 23.4666 0.866667C24.0444 1.44444 24.3333 2.15556 24.3333 3V6.5C24.7777 6.74444 25.111 7.1 25.3333 7.56667C25.5555 8.03333 25.6666 8.5 25.6666 8.96667V15.9C25.6666 16.1222 25.5944 16.3056 25.4499 16.45C25.3055 16.5944 25.1221 16.6667 24.8999 16.6667C24.6777 16.6667 24.4999 16.5944 24.3666 16.45C24.2333 16.3056 24.1666 16.1222 24.1666 15.9V14H1.83325V15.9C1.83325 16.1222 1.76659 16.3056 1.63325 16.45C1.49992 16.5944 1.32214 16.6667 1.09992 16.6667ZM13.7666 6.1H22.8333V3C22.8333 2.57778 22.6833 2.22222 22.3833 1.93333C22.0833 1.64444 21.7333 1.5 21.3333 1.5H15.0999C14.7221 1.5 14.4055 1.65 14.1499 1.95C13.8944 2.25 13.7666 2.6 13.7666 3V6.1ZM3.16659 6.1H12.2333V3C12.2333 2.6 12.1055 2.25 11.8499 1.95C11.5944 1.65 11.2777 1.5 10.8999 1.5H4.66659C4.26659 1.5 3.91659 1.65 3.61659 1.95C3.31659 2.25 3.16659 2.6 3.16659 3V6.1ZM1.83325 12.5H24.1666V8.96667C24.1666 8.58889 24.0388 8.27222 23.7833 8.01667C23.5277 7.76111 23.211 7.63333 22.8333 7.63333H3.16659C2.78881 7.63333 2.47214 7.76111 2.21659 8.01667C1.96103 8.27222 1.83325 8.58889 1.83325 8.96667V12.5ZM24.1666 12.5H1.83325H24.1666Z" fill="white"/>
</svg>
