<svg width="53" height="54" viewBox="0 0 53 54" fill="none" xmlns="http://www.w3.org/2000/svg">
<path d="M47.8 34.8667H50.8667V14.3334C50.8667 13.7112 50.7222 13.1112 50.4333 12.5334C50.1444 11.9556 49.7555 11.5112 49.2667 11.2001L35.6 1.46673C34.8889 0.977842 34.1333 0.733398 33.3333 0.733398C32.5333 0.733398 31.7778 0.977842 31.0667 1.46673L17.4 11.2001C16.9111 11.5112 16.5222 11.9556 16.2333 12.5334C15.9444 13.1112 15.8 13.7112 15.8 14.3334V22.8001H18.8666V14.2667C18.8666 14.1334 18.8889 14.0001 18.9333 13.8667C18.9778 13.7334 19.0667 13.6223 19.2 13.5334L32.8667 4.00006C33 3.91118 33.1555 3.86673 33.3333 3.86673C33.5111 3.86673 33.6667 3.91118 33.8 4.00006L47.4667 13.5334C47.6 13.6223 47.6889 13.7334 47.7333 13.8667C47.7778 14.0001 47.8 14.1334 47.8 14.2667V34.8667ZM36 17.2001C35.6889 17.2001 35.4111 17.0778 35.1667 16.8334C34.9222 16.589 34.8 16.3112 34.8 16.0001C34.8 15.6445 34.9222 15.3556 35.1667 15.1334C35.4111 14.9112 35.6889 14.8001 36 14.8001C36.3111 14.8001 36.5889 14.9112 36.8333 15.1334C37.0778 15.3556 37.2 15.6445 37.2 16.0001C37.2 16.3112 37.0778 16.589 36.8333 16.8334C36.5889 17.0778 36.3111 17.2001 36 17.2001ZM30.6667 17.2001C30.3555 17.2001 30.0778 17.0778 29.8333 16.8334C29.5889 16.589 29.4667 16.3112 29.4667 16.0001C29.4667 15.6445 29.5889 15.3556 29.8333 15.1334C30.0778 14.9112 30.3555 14.8001 30.6667 14.8001C30.9778 14.8001 31.2555 14.9112 31.5 15.1334C31.7444 15.3556 31.8667 15.6445 31.8667 16.0001C31.8667 16.3112 31.7444 16.589 31.5 16.8334C31.2555 17.0778 30.9778 17.2001 30.6667 17.2001ZM36 22.5334C35.6889 22.5334 35.4111 22.4112 35.1667 22.1667C34.9222 21.9223 34.8 21.6445 34.8 21.3334C34.8 20.9778 34.9222 20.689 35.1667 20.4667C35.4111 20.2445 35.6889 20.1334 36 20.1334C36.3111 20.1334 36.5889 20.2445 36.8333 20.4667C37.0778 20.689 37.2 20.9778 37.2 21.3334C37.2 21.6445 37.0778 21.9223 36.8333 22.1667C36.5889 22.4112 36.3111 22.5334 36 22.5334ZM30.6667 22.5334C30.3555 22.5334 30.0778 22.4112 29.8333 22.1667C29.5889 21.9223 29.4667 21.6445 29.4667 21.3334C29.4667 20.9778 29.5889 20.689 29.8333 20.4667C30.0778 20.2445 30.3555 20.1334 30.6667 20.1334C30.9778 20.1334 31.2555 20.2445 31.5 20.4667C31.7444 20.689 31.8667 20.9778 31.8667 21.3334C31.8667 21.6445 31.7444 21.9223 31.5 22.1667C31.2555 22.4112 30.9778 22.5334 30.6667 22.5334ZM32.6667 50.2667C32.7555 50.3112 32.8444 50.3334 32.9333 50.3334C33.0222 50.3334 33.0889 50.3112 33.1333 50.2667L49.3333 45.2667C49.1555 44.689 48.8555 44.1334 48.4333 43.6001C48.0111 43.0667 47.5555 42.8001 47.0667 42.8001H32.2C31.8889 42.8001 31.3222 42.7667 30.5 42.7001C29.6778 42.6334 28.8667 42.4445 28.0667 42.1334L23.4667 40.6667C23.0667 40.5334 22.7555 40.2667 22.5333 39.8667C22.3111 39.4667 22.2667 39.0445 22.4 38.6001C22.5778 38.2001 22.8555 37.9112 23.2333 37.7334C23.6111 37.5556 24.0222 37.5556 24.4667 37.7334L30.4 39.7334C30.5778 39.8223 31.0889 39.8556 31.9333 39.8334C32.7778 39.8112 33.8889 39.8001 35.2667 39.8001H35.8667C35.8667 39.089 35.7555 38.4778 35.5333 37.9667C35.3111 37.4556 34.9333 37.089 34.4 36.8667L18.4 30.8001H12.2V44.2001L32.6667 50.2667ZM32.0667 53.2001L12.2 47.4001C12.0667 48.5556 11.5778 49.4556 10.7333 50.1001C9.88887 50.7445 9.08887 51.0667 8.33332 51.0667H3.86665C2.84443 51.0667 1.95554 50.6778 1.19998 49.9001C0.444428 49.1223 0.0666504 48.2223 0.0666504 47.2001V31.6001C0.0666504 30.5334 0.444428 29.6223 1.19998 28.8667C1.95554 28.1112 2.84443 27.7334 3.86665 27.7334H18C18.2222 27.7334 18.4444 27.7556 18.6667 27.8001C18.8889 27.8445 19.1111 27.9112 19.3333 28.0001L35.4 34.0001C36.4222 34.3556 37.2889 34.9778 38 35.8667C38.7111 36.7556 39.0667 38.0667 39.0667 39.8001H47.4667C49.1111 39.8001 50.4222 40.3667 51.4 41.5001C52.3778 42.6334 52.8667 44.1556 52.8667 46.0667C52.8667 46.4667 52.7667 46.8223 52.5667 47.1334C52.3667 47.4445 52.0889 47.689 51.7333 47.8667L34.2667 53.2001C33.9111 53.289 33.5444 53.3334 33.1667 53.3334C32.7889 53.3334 32.4222 53.289 32.0667 53.2001ZM3.06665 47.2001C3.06665 47.4223 3.14443 47.6112 3.29998 47.7667C3.45554 47.9223 3.64443 48.0001 3.86665 48.0001H8.26665C8.48887 48.0001 8.67776 47.9334 8.83332 47.8001C8.98887 47.6667 9.06665 47.4667 9.06665 47.2001V30.8001H3.86665C3.64443 30.8001 3.45554 30.8778 3.29998 31.0334C3.14443 31.189 3.06665 31.3778 3.06665 31.6001V47.2001Z" fill="#3A5295"/>
</svg>
