<svg width="86" height="95" viewBox="0 0 86 95" fill="none" xmlns="http://www.w3.org/2000/svg">
<path d="M11.375 94.5C8.29167 94.5 5.66667 93.4167 3.5 91.25C1.33333 89.0833 0.25 86.4583 0.25 83.375V74C0.25 73 0.583334 72.1458 1.25 71.4375C1.91667 70.7292 2.79167 70.375 3.875 70.375H15.875V3.75C15.875 2.83333 16.2292 2.33333 16.9375 2.25C17.6458 2.16667 18.3333 2.41667 19 3L22.75 6.75L28.5 1.25C28.8333 0.833333 29.2708 0.625 29.8125 0.625C30.3542 0.625 30.7917 0.833333 31.125 1.25L36.75 6.75L42.5 1.25C42.8333 0.833333 43.25 0.625 43.75 0.625C44.25 0.625 44.7083 0.833333 45.125 1.25L50.75 6.75L56.5 1.25C56.8333 0.833333 57.2708 0.625 57.8125 0.625C58.3542 0.625 58.7917 0.833333 59.125 1.25L64.875 6.75L70.5 1.25C70.8333 0.833333 71.2708 0.625 71.8125 0.625C72.3542 0.625 72.7917 0.833333 73.125 1.25L78.875 6.75L82.625 3C83.2917 2.33333 83.9792 2.08333 84.6875 2.25C85.3958 2.41667 85.75 2.91667 85.75 3.75V83.375C85.75 86.4583 84.6667 89.0833 82.5 91.25C80.3333 93.4167 77.7083 94.5 74.625 94.5H11.375ZM74.625 88.875C76.2083 88.875 77.5208 88.3542 78.5625 87.3125C79.6042 86.2708 80.125 84.9583 80.125 83.375V10.125H21.5V70.375H65.625C66.625 70.375 67.4792 70.7292 68.1875 71.4375C68.8958 72.1458 69.25 73 69.25 74V83.375C69.25 84.9583 69.75 86.2708 70.75 87.3125C71.75 88.3542 73.0417 88.875 74.625 88.875ZM31.375 28.75C30.625 28.75 29.9792 28.4583 29.4375 27.875C28.8958 27.2917 28.625 26.625 28.625 25.875C28.625 25.0417 28.9167 24.3542 29.5 23.8125C30.0833 23.2708 30.75 23 31.5 23H54.25C55 23 55.6458 23.2917 56.1875 23.875C56.7292 24.4583 57 25.125 57 25.875C57 26.7083 56.7292 27.3958 56.1875 27.9375C55.6458 28.4792 55 28.75 54.25 28.75H31.375ZM31.375 45C30.625 45 29.9792 44.7083 29.4375 44.125C28.8958 43.5417 28.625 42.875 28.625 42.125C28.625 41.375 28.9167 40.7292 29.5 40.1875C30.0833 39.6458 30.75 39.375 31.5 39.375H54.25C55 39.375 55.6458 39.6458 56.1875 40.1875C56.7292 40.7292 57 41.4167 57 42.25C57 43.0833 56.7292 43.75 56.1875 44.25C55.6458 44.75 55 45 54.25 45H31.375ZM68.625 29.375C67.7083 29.375 66.8958 29.0208 66.1875 28.3125C65.4792 27.6042 65.125 26.7917 65.125 25.875C65.125 24.9583 65.4792 24.1458 66.1875 23.4375C66.8958 22.7292 67.7083 22.375 68.625 22.375C69.5417 22.375 70.3542 22.7292 71.0625 23.4375C71.7708 24.1458 72.125 24.9583 72.125 25.875C72.125 26.7917 71.7708 27.6042 71.0625 28.3125C70.3542 29.0208 69.5417 29.375 68.625 29.375ZM68.625 45.25C67.7083 45.25 66.8958 44.8958 66.1875 44.1875C65.4792 43.4792 65.125 42.6667 65.125 41.75C65.125 40.8333 65.4792 40.0208 66.1875 39.3125C66.8958 38.6042 67.7083 38.25 68.625 38.25C69.5417 38.25 70.3542 38.6042 71.0625 39.3125C71.7708 40.0208 72.125 40.8333 72.125 41.75C72.125 42.6667 71.7708 43.4792 71.0625 44.1875C70.3542 44.8958 69.5417 45.25 68.625 45.25ZM11.25 88.875H63.5V76.125H5.875V83.375C5.875 84.9583 6.39583 86.2708 7.4375 87.3125C8.47917 88.3542 9.75 88.875 11.25 88.875ZM5.875 88.875V76.125V88.875Z" fill="#3A5295"/>
</svg>
