<svg width="97" height="74" viewBox="0 0 97 74" fill="none" xmlns="http://www.w3.org/2000/svg">
<path d="M71.625 20.875L91.5 1.125C92.0833 0.541665 92.75 0.25 93.5 0.25C94.25 0.25 94.9167 0.541665 95.5 1.125C96.0833 1.70833 96.375 2.375 96.375 3.125C96.375 3.875 96.0833 4.54167 95.5 5.125L74.25 26.375C73.5833 27.125 72.75 27.5 71.75 27.5C70.75 27.5 69.9167 27.125 69.25 26.375L58.25 15.5C57.75 14.9167 57.5 14.25 57.5 13.5C57.5 12.75 57.75 12.0833 58.25 11.5C58.8333 11 59.5 10.75 60.25 10.75C61 10.75 61.6667 11 62.25 11.5L71.625 20.875ZM3.125 19.875C2.29167 19.875 1.60417 19.6042 1.0625 19.0625C0.520833 18.5208 0.25 17.8333 0.25 17C0.25 16.1667 0.520833 15.4792 1.0625 14.9375C1.60417 14.3958 2.29167 14.125 3.125 14.125H39.875C40.7083 14.125 41.3958 14.3958 41.9375 14.9375C42.4792 15.4792 42.75 16.1667 42.75 17C42.75 17.8333 42.4792 18.5208 41.9375 19.0625C41.3958 19.6042 40.7083 19.875 39.875 19.875H3.125ZM74 61L62.25 72.625C61.6667 73.125 61 73.3958 60.25 73.4375C59.5 73.4792 58.8333 73.2083 58.25 72.625C57.75 72.0417 57.5 71.375 57.5 70.625C57.5 69.875 57.75 69.2083 58.25 68.625L70 57L58.25 45.375C57.75 44.7917 57.5 44.125 57.5 43.375C57.5 42.625 57.75 41.9583 58.25 41.375C58.8333 40.7917 59.5 40.5208 60.25 40.5625C61 40.6042 61.6667 40.875 62.25 41.375L74 53L85.625 41.375C86.2083 40.7917 86.875 40.5 87.625 40.5C88.375 40.5 89.0417 40.7917 89.625 41.375C90.2083 41.9583 90.5 42.625 90.5 43.375C90.5 44.125 90.2083 44.7917 89.625 45.375L78 57L89.625 68.625C90.2083 69.2083 90.5 69.875 90.5 70.625C90.5 71.375 90.2083 72.0417 89.625 72.625C89.0417 73.2083 88.375 73.5 87.625 73.5C86.875 73.5 86.2083 73.2083 85.625 72.625L74 61ZM3.125 59.875C2.29167 59.875 1.60417 59.6042 1.0625 59.0625C0.520833 58.5208 0.25 57.8333 0.25 57C0.25 56.1667 0.520833 55.4792 1.0625 54.9375C1.60417 54.3958 2.29167 54.125 3.125 54.125H39.875C40.7083 54.125 41.3958 54.3958 41.9375 54.9375C42.4792 55.4792 42.75 56.1667 42.75 57C42.75 57.8333 42.4792 58.5208 41.9375 59.0625C41.3958 59.6042 40.7083 59.875 39.875 59.875H3.125Z" fill="#3A5295"/>
</svg>
