<svg width="30" height="30" viewBox="0 0 30 30" fill="none" xmlns="http://www.w3.org/2000/svg">
<path fill-rule="evenodd" clip-rule="evenodd" d="M15.0002 0.333496C6.90123 0.333496 0.333496 6.90123 0.333496 15.0002C0.333496 22.4098 5.83203 28.5184 12.9674 29.5099V19.1406H9.52803V15.1556H12.9674V12.2179C12.9674 8.8079 15.0486 6.9511 18.0904 6.9511C19.5498 6.9511 20.8008 7.05963 21.1646 7.10656V10.6706L19.0555 10.672C17.4011 10.672 17.0828 11.4582 17.0828 12.611V15.1542H21.0282L20.5119 19.1391H17.0814V29.5026C24.1932 28.4891 29.6668 22.3922 29.6668 15.0002C29.6668 6.90123 23.0991 0.333496 15.0002 0.333496" fill="white"/>
</svg>
