<svg width="52" height="45" viewBox="0 0 52 45" fill="none" xmlns="http://www.w3.org/2000/svg">
<path d="M23.4 43.9332L20.3334 41.0666C15 36.1777 10.3889 31.511 6.50002 27.0666C2.61113 22.6221 0.666687 18.0221 0.666687 13.2666C0.666687 9.62212 1.90002 6.56657 4.36669 4.0999C6.83335 1.63324 9.88891 0.399902 13.5334 0.399902C15.5778 0.399902 17.7 0.922124 19.9 1.96657C22.1 3.01101 24.1334 4.93324 26 7.73324C28 4.93324 30.0556 3.01101 32.1667 1.96657C34.2778 0.922124 36.3778 0.399902 38.4667 0.399902C42.1111 0.399902 45.1667 1.63324 47.6334 4.0999C50.1 6.56657 51.3334 9.62212 51.3334 13.2666C51.3334 18.0666 49.3445 22.6999 45.3667 27.1666C41.3889 31.6332 36.8222 36.2666 31.6667 41.0666L28.6 43.8666C27.8445 44.5332 26.9778 44.8666 26 44.8666C25.0222 44.8666 24.1556 44.5555 23.4 43.9332ZM24.6667 11.1332C23.2889 8.64435 21.6222 6.73324 19.6667 5.3999C17.7111 4.06657 15.6667 3.3999 13.5334 3.3999C10.6445 3.3999 8.2778 4.33324 6.43335 6.1999C4.58891 8.06657 3.66669 10.4221 3.66669 13.2666C3.66669 15.6221 4.38891 18.0443 5.83335 20.5332C7.2778 23.0221 9.08891 25.4999 11.2667 27.9666C13.4445 30.4332 15.8 32.8332 18.3334 35.1666C20.8667 37.4999 23.2445 39.6666 25.4667 41.6666C25.6 41.7999 25.7778 41.8666 26 41.8666C26.2222 41.8666 26.4 41.7999 26.5334 41.6666C28.7556 39.711 31.1334 37.5555 33.6667 35.1999C36.2 32.8444 38.5556 30.4332 40.7334 27.9666C42.9111 25.4999 44.7222 23.011 46.1667 20.4999C47.6111 17.9888 48.3334 15.5777 48.3334 13.2666C48.3334 10.4221 47.4 8.06657 45.5334 6.1999C43.6667 4.33324 41.3111 3.3999 38.4667 3.3999C36.2889 3.3999 34.2334 4.05546 32.3 5.36657C30.3667 6.67768 28.6889 8.5999 27.2667 11.1332C27.0889 11.3999 26.8889 11.5999 26.6667 11.7332C26.4445 11.8666 26.2 11.9332 25.9334 11.9332C25.6667 11.9332 25.4222 11.8666 25.2 11.7332C24.9778 11.5999 24.8 11.3999 24.6667 11.1332Z" fill="#3A5295"/>
</svg>
