<svg width="16" height="18" viewBox="0 0 16 18" fill="none" xmlns="http://www.w3.org/2000/svg">
<path d="M1.625 16.3749H5.525V10.2499H10.475V16.3749H14.375V6.8249L8 2.0249L1.625 6.8249V16.3749ZM1.625 17.4999C1.325 17.4999 1.0625 17.3874 0.8375 17.1624C0.6125 16.9374 0.5 16.6749 0.5 16.3749V6.8249C0.5 6.64157 0.5375 6.47074 0.6125 6.3124C0.6875 6.15407 0.8 6.0249 0.95 5.9249L7.325 1.1249C7.425 1.04157 7.53333 0.983236 7.65 0.949902C7.76667 0.916569 7.88333 0.899902 8 0.899902C8.13333 0.899902 8.25417 0.916569 8.3625 0.949902C8.47083 0.983236 8.575 1.04157 8.675 1.1249L15.05 5.9249C15.2 6.0249 15.3125 6.15407 15.3875 6.3124C15.4625 6.47074 15.5 6.64157 15.5 6.8249V16.3749C15.5 16.6749 15.3875 16.9374 15.1625 17.1624C14.9375 17.3874 14.675 17.4999 14.375 17.4999H9.325V11.3749H6.675V17.4999H1.625Z" fill="black"/>
</svg>
