<svg width="97" height="96" viewBox="0 0 97 96" fill="none" xmlns="http://www.w3.org/2000/svg">
<path d="M46 95.375C39.6667 95.125 33.7292 93.7083 28.1875 91.125C22.6458 88.5417 17.8333 85.125 13.75 80.875C9.66667 76.625 6.4375 71.6875 4.0625 66.0625C1.6875 60.4375 0.5 54.4167 0.5 48C0.5 41.4167 1.75 35.25 4.25 29.5C6.75 23.75 10.1458 18.7292 14.4375 14.4375C18.7292 10.1458 23.75 6.75 29.5 4.25C35.25 1.75 41.4167 0.5 48 0.5C60.0833 0.5 70.5417 4.39583 79.375 12.1875C88.2083 19.9792 93.4167 29.7083 95 41.375H89.25C88.1667 34.0417 85.375 27.4792 80.875 21.6875C76.375 15.8958 70.625 11.5833 63.625 8.75V11.125C63.625 13.9583 62.625 16.4375 60.625 18.5625C58.625 20.6875 56.2083 21.75 53.375 21.75H42.75V32.375C42.75 33.7917 42.2083 34.9583 41.125 35.875C40.0417 36.7917 38.7917 37.25 37.375 37.25H27.125V48H39.5V63.375H32.375L7.25 38.375C6.91667 39.9583 6.64583 41.5417 6.4375 43.125C6.22917 44.7083 6.125 46.3333 6.125 48C6.125 59.1667 9.9375 68.7917 17.5625 76.875C25.1875 84.9583 34.6667 89.25 46 89.75V95.375ZM91.875 90.875L76.625 75.875C75.0417 77.0417 73.2917 77.9583 71.375 78.625C69.4583 79.2917 67.5 79.625 65.5 79.625C60.1667 79.625 55.6458 77.7708 51.9375 74.0625C48.2292 70.3542 46.375 65.8333 46.375 60.5C46.375 55.1667 48.2292 50.6458 51.9375 46.9375C55.6458 43.2292 60.1667 41.375 65.5 41.375C70.8333 41.375 75.3542 43.2292 79.0625 46.9375C82.7708 50.6458 84.625 55.1667 84.625 60.5C84.625 62.5 84.2708 64.4792 83.5625 66.4375C82.8542 68.3958 81.9167 70.2083 80.75 71.875L95.875 86.875C96.4583 87.4583 96.7708 88.125 96.8125 88.875C96.8542 89.625 96.5833 90.3333 96 91C95.4167 91.5 94.7292 91.75 93.9375 91.75C93.1458 91.75 92.4583 91.4583 91.875 90.875ZM65.5 73.875C69.25 73.875 72.4167 72.5833 75 70C77.5833 67.4167 78.875 64.25 78.875 60.5C78.875 56.75 77.5833 53.5833 75 51C72.4167 48.4167 69.25 47.125 65.5 47.125C61.75 47.125 58.5833 48.4167 56 51C53.4167 53.5833 52.125 56.75 52.125 60.5C52.125 64.25 53.4167 67.4167 56 70C58.5833 72.5833 61.75 73.875 65.5 73.875Z" fill="#3A5295"/>
</svg>
