<svg width="16" height="20" viewBox="0 0 16 20" fill="none" xmlns="http://www.w3.org/2000/svg">
<path d="M5.425 10.55V6.25L8 4.55L10.575 6.25V10.55H9.1V7.825H6.9V10.55H5.425ZM8 18.3C10.1833 16.35 11.8333 14.4958 12.95 12.7375C14.0667 10.9792 14.625 9.46667 14.625 8.2C14.625 6.2 13.9875 4.5625 12.7125 3.2875C11.4375 2.0125 9.86667 1.375 8 1.375C6.13333 1.375 4.5625 2.0125 3.2875 3.2875C2.0125 4.5625 1.375 6.2 1.375 8.2C1.375 9.46667 1.94167 10.9792 3.075 12.7375C4.20833 14.4958 5.85 16.35 8 18.3ZM8 19.8C5.4 17.5333 3.45833 15.4333 2.175 13.5C0.891667 11.5667 0.25 9.8 0.25 8.2C0.25 5.78333 1.02917 3.85417 2.5875 2.4125C4.14583 0.970833 5.95 0.25 8 0.25C10.05 0.25 11.8542 0.970833 13.4125 2.4125C14.9708 3.85417 15.75 5.78333 15.75 8.2C15.75 9.8 15.1083 11.5667 13.825 13.5C12.5417 15.4333 10.6 17.5333 8 19.8Z" fill="#3A5295"/>
</svg>
