<svg width="30" height="30" viewBox="0 0 30 30" fill="none" xmlns="http://www.w3.org/2000/svg">
<path fill-rule="evenodd" clip-rule="evenodd" d="M23.1064 11.9422C23.1152 12.1035 23.1152 12.2736 23.1152 12.4438C23.1152 17.5815 19.2021 23.5112 12.0477 23.5112C9.85361 23.5112 7.80321 22.8644 6.10188 21.7512C6.40841 21.7923 6.71495 21.8084 7.02881 21.8084C8.85188 21.8084 10.5312 21.188 11.8615 20.1467C10.1601 20.1144 8.72281 18.9939 8.23148 17.4436C8.47348 17.492 8.71548 17.517 8.96481 17.517C9.32121 17.517 9.66735 17.4686 9.99148 17.3791C8.20801 17.0168 6.86895 15.4519 6.86895 13.5643V13.5159C7.39255 13.8063 7.98948 13.9838 8.62748 13.9999C7.57881 13.3062 6.89241 12.1123 6.89241 10.7644C6.89241 10.056 7.08601 9.38576 7.41748 8.81229C9.33588 11.1692 12.2003 12.7166 15.4357 12.8794C15.3624 12.5963 15.3301 12.2971 15.3301 11.9906C15.3301 9.84482 17.0725 8.10389 19.2183 8.10389C20.3388 8.10389 21.3479 8.57029 22.0577 9.33002C22.9451 9.15256 23.7752 8.82989 24.5261 8.38549C24.2372 9.29629 23.6241 10.056 22.816 10.54C23.6065 10.4432 24.3575 10.2335 25.0497 9.92549C24.5261 10.7087 23.8647 11.3936 23.1064 11.9422ZM15.0002 0.333496C6.8983 0.333496 0.333496 6.89976 0.333496 15.0002C0.333496 23.0991 6.8983 29.6668 15.0002 29.6668C23.0991 29.6668 29.6668 23.0991 29.6668 15.0002C29.6668 6.89976 23.0991 0.333496 15.0002 0.333496Z" fill="white"/>
</svg>
