<svg width="103" height="23" viewBox="0 0 103 23" fill="none" xmlns="http://www.w3.org/2000/svg">
<path d="M17.4215 14.3783C17.4215 16.9748 16.6841 18.9085 15.2094 20.1794C13.7346 21.4411 11.6976 22.072 9.09818 22.072C6.50942 22.072 4.47766 21.4411 3.00291 20.1794C1.53877 18.9085 0.806702 16.9748 0.806702 14.3783C0.806702 13.9943 0.806702 13.5874 0.806702 13.1577C0.806702 12.7188 0.806702 12.2617 0.806702 11.7863V1.55539H4.26016V12.1154C4.26016 12.5543 4.26016 12.9611 4.26016 13.336C4.26016 13.7108 4.26016 14.0537 4.26016 14.3645C4.26016 16.1931 4.66333 17.5143 5.46967 18.328C6.276 19.1325 7.48551 19.5348 9.09818 19.5348C10.7215 19.5348 11.9363 19.1325 12.7426 18.328C13.5596 17.5143 13.968 16.1931 13.968 14.3645V1.55539H17.4215V14.3783Z" fill="white"/>
<path d="M33.8684 21.784V15.064C33.8684 14.6708 33.8684 14.3371 33.8684 14.0628C33.8684 13.7885 33.8684 13.5325 33.8684 13.2948C33.8684 12.5817 33.7411 11.9554 33.4865 11.416C33.2319 10.8674 32.8128 10.4423 32.2292 10.1405C31.6457 9.82968 30.8659 9.67425 29.8898 9.67425C29.0304 9.67425 28.2506 9.85711 27.5504 10.2228C26.8607 10.5885 26.309 11.0868 25.8952 11.7177C25.4921 12.3394 25.2905 13.048 25.2905 13.8434L23.8104 13.2125C23.8104 12.0331 24.134 10.9771 24.7812 10.0445C25.4284 9.10282 26.2931 8.35768 27.3753 7.80911C28.4681 7.26054 29.6617 6.98625 30.9561 6.98625C32.2929 6.98625 33.4334 7.21025 34.3777 7.65825C35.3326 8.09711 36.0593 8.72797 36.558 9.55082C37.0673 10.3645 37.3219 11.3383 37.3219 12.472C37.3219 12.8925 37.3219 13.3588 37.3219 13.8708C37.3219 14.3828 37.3219 14.8765 37.3219 15.352V21.784H33.8684ZM21.837 21.784V7.21939H25.2905V21.784H21.837Z" fill="white"/>
<path d="M41.7158 21.784V7.21939H45.1215V21.784H41.7158ZM43.4346 4.20225C42.8404 4.20225 42.3259 4.06511 41.8909 3.79082C41.4665 3.50739 41.2543 3.11882 41.2543 2.62511C41.2543 2.14054 41.4665 1.76111 41.8909 1.48682C42.3259 1.20339 42.8404 1.06168 43.4346 1.06168C44.0181 1.06168 44.5221 1.20339 44.9465 1.48682C45.3815 1.76111 45.5989 2.14054 45.5989 2.62511C45.5989 3.11882 45.3815 3.50739 44.9465 3.79082C44.5221 4.06511 44.0181 4.20225 43.4346 4.20225Z" fill="white"/>
<path d="M49.6072 21.784V1.55539H53.0606V20.8788L51.501 19.2605H62.1478V21.784H49.6072Z" fill="white"/>
<path d="M65.7741 21.784V7.21939H69.1798V21.784H65.7741ZM67.4929 4.20225C66.8988 4.20225 66.3842 4.06511 65.9492 3.79082C65.5248 3.50739 65.3126 3.11882 65.3126 2.62511C65.3126 2.14054 65.5248 1.76111 65.9492 1.48682C66.3842 1.20339 66.8988 1.06168 67.4929 1.06168C68.0764 1.06168 68.5804 1.20339 69.0048 1.48682C69.4398 1.76111 69.6573 2.14054 69.6573 2.62511C69.6573 3.11882 69.4398 3.50739 69.0048 3.79082C68.5804 4.06511 68.0764 4.20225 67.4929 4.20225Z" fill="white"/>
<path d="M75.8617 21.784V9.68797H72.2173V7.21939H75.8617V5.62854C75.8617 4.87882 75.9678 4.20682 76.18 3.61254C76.4028 3.01825 76.7105 2.50625 77.103 2.07654C77.4956 1.63768 77.9571 1.27654 78.4876 0.993109C79.0287 0.70968 79.6175 0.499394 80.2541 0.362251C80.9013 0.215965 81.575 0.142822 82.2753 0.142822C82.8482 0.142822 83.2938 0.174822 83.6121 0.238822C83.941 0.293679 84.1585 0.343965 84.2646 0.38968V2.87197C84.1373 2.83539 83.9198 2.79425 83.6121 2.74854C83.3044 2.70282 82.9755 2.67997 82.6254 2.67997C81.9464 2.67997 81.3894 2.76682 80.9544 2.94054C80.5194 3.11425 80.1799 3.35654 79.9358 3.66739C79.6918 3.96911 79.5221 4.32111 79.4266 4.72339C79.3417 5.11654 79.2992 5.53711 79.2992 5.98511V7.21939H84.1054V9.68797H79.2992V21.784H75.8617Z" fill="white"/>
<path d="M87.4356 15.544V13.2263H99.8807L99.4033 13.912C99.4033 13.8571 99.4033 13.8023 99.4033 13.7474C99.4033 13.6834 99.4033 13.6285 99.4033 13.5828C99.4033 12.8423 99.2176 12.1611 98.8463 11.5394C98.475 10.9085 97.9179 10.4057 97.1753 10.0308C96.4432 9.64682 95.5255 9.45482 94.4221 9.45482C93.3186 9.45482 92.3478 9.66054 91.5097 10.072C90.6821 10.4743 90.0349 11.0503 89.5681 11.8C89.1119 12.5405 88.8838 13.432 88.8838 14.4743C88.8838 15.5348 89.1066 16.4491 89.5522 17.2171C89.9978 17.976 90.6397 18.5611 91.4779 18.9725C92.316 19.384 93.3186 19.5897 94.4857 19.5897C95.3027 19.5897 96.0082 19.5211 96.6023 19.384C97.2071 19.2377 97.7004 19.0457 98.0824 18.808C98.475 18.5703 98.772 18.3143 98.9736 18.04C99.1752 17.7565 99.2919 17.4777 99.3237 17.2034H102.761C102.698 17.7977 102.47 18.3874 102.077 18.9725C101.695 19.5485 101.149 20.0743 100.438 20.5497C99.7375 21.016 98.8781 21.3908 97.8596 21.6743C96.8517 21.9485 95.6899 22.0857 94.3743 22.0857C92.6131 22.0857 91.0694 21.7657 89.7432 21.1257C88.417 20.4857 87.3825 19.5988 86.6398 18.4651C85.8972 17.3223 85.5258 16.0148 85.5258 14.5428C85.5258 13.0434 85.9025 11.7268 86.6557 10.5931C87.409 9.45939 88.4541 8.57711 89.7909 7.94625C91.1277 7.30625 92.6608 6.98625 94.3902 6.98625C96.1514 6.98625 97.6739 7.30625 98.9577 7.94625C100.252 8.58625 101.249 9.46854 101.95 10.5931C102.65 11.7177 103 13.0114 103 14.4743C103 14.648 102.995 14.8491 102.984 15.0777C102.973 15.3063 102.958 15.4617 102.936 15.544H87.4356Z" fill="white"/>
</svg>
